#!OML:ASF E:\Steps\Project 1\Capture day 1\Session 2\Subject.ASF
:FULLY-SPECIFIED
:DEGREES
405
root 12.3133 18.8283 16.5667 -152.197 1.04977 177.2
lowerback -30.831 -3.75538 -5.2706
upperback -3.39434 -1.92811 0.0144942
thorax 12.4879 -0.62803 2.22311
lowerneck -4.56533 -1.0504 2.05699
upperneck 1.91739 -1.51813 0.279495
head 1.34339 -0.730426 -0.295696
rclavicle 3.72721e-015 -1.59028e-015
rhumerus -36.2697 -17.7179 -78.9937
rradius 31.8481
rwrist -4.23082
rhand -9.50516 -50.6619
rfingers 7.12502
rthumb 16.4601 -79.9836
lclavicle 3.72721e-015 -1.59028e-015
lhumerus -27.2111 5.87059 83.2344
lradius 20.8486
lwrist -4.53477
lhand -23.1819 -14.0913
lfingers 7.12502
lthumb 3.26739 15.8634
rfemur -24.099 7.03391 19.1565
rtibia 6.87349
rfoot -18.1199 -4.27668
rtoes -30.183
lfemur -25.8742 -8.9104 -21.2604
ltibia 7.91148
lfoot -4.5231 -10.2626
ltoes -9.8972
406
root 12.3014 18.8312 16.5292 -152.938 1.47953 177.441
lowerback -31.472 -3.30565 -4.74616
upperback -2.59935 -1.54495 -0.330749
thorax 13.6183 -0.510788 1.69246
lowerneck -4.76199 -1.00432 2.18114
upperneck 1.4182 -1.46139 0.585234
head 1.22044 -0.695189 -0.218925
rclavicle 1.77167e-014 -5.36719e-015
rhumerus -35.5297 -18.2769 -79.5649
rradius 31.8884
rwrist -3.74312
rhand -9.25777 -50.0031
rfingers 7.12502
rthumb 16.6983 -79.3049
lclavicle 1.77167e-014 -5.36719e-015
lhumerus -26.4244 5.79314 82.9116
lradius 20.7846
lwrist -4.82394
lhand -23.1751 -13.3968
lfingers 7.12502
lthumb 3.27402 16.5578
rfemur -23.1096 7.13107 19.4019
rtibia 6.71039
rfoot -18.1334 -3.85974
rtoes -29.8927
lfemur -24.5046 -9.03696 -21.1853
ltibia 7.21267
lfoot -4.68852 -9.62677
ltoes -10.55
407
root 12.3142 18.8267 16.5631 -152.225 1.00836 177.15
lowerback -31.6869 -3.63896 -5.14437
upperback -2.89544 -1.73731 -0.361638
thorax 13.3899 -0.569938 1.79992
lowerneck -4.89014 -1.05934 2.40181
upperneck 1.64386 -1.55186 0.421301
head 1.31135 -0.740089 -0.311283
rclavicle -1.13307e-014 -3.02153e-014
rhumerus -35.5557 -18.4767 -79.6439
rradius 31.977
rwrist -3.58323
rhand -9.51179 -50.5495
rfingers 7.12502
rthumb 16.4537 -79.8718
lclavicle -1.13307e-014 -3.02153e-014
lhumerus -26.4122 5.93775 82.7504
lradius 20.6627
lwrist -5.51579
lhand -23.1594 -13.3505
lfingers 7.12502
lthumb 3.28914 16.6038
rfemur -24.0732 7.35069 19.0578
rtibia 6.93384
rfoot -18.0571 -4.65413
rtoes -29.8982
lfemur -25.7875 -8.50409 -21.3932
ltibia 7.86796
lfoot -4.28655 -10.7967
ltoes -8.61244
408
root 12.2992 18.8322 16.526 -153.053 1.32051 177.347
lowerback -32.5057 -3.18514 -4.46871
upperback -1.86055 -1.40373 -0.808334
thorax 14.8915 -0.478525 1.05002
lowerneck -5.37661 -1.04944 2.86562
upperneck 1.51183 -1.57413 0.55392
head 1.35196 -0.740519 -0.35183
rclavicle -7.65321e-015 2.26615e-014
rhumerus -34.1896 -19.041 -80.5496
rradius 31.7237
rwrist -3.37803
rhand -9.41576 -49.9483
rfingers 7.12502
rthumb 16.5462 -79.2629
lclavicle -7.65321e-015 2.26615e-014
lhumerus -25.2546 5.82895 82.371
lradius 20.4201
lwrist -5.24618
lhand -22.8266 -13.8419
lfingers 7.12502
lthumb 3.61055 16.1073
rfemur -22.9538 7.26427 19.3068
rtibia 6.72123
rfoot -18.1635 -4.11789
rtoes -30.0718
lfemur -24.3188 -8.75062 -21.3523
ltibia 7.11947
lfoot -4.41728 -10.1056
ltoes -10.5227
409
root 12.3105 18.8292 16.5619 -152.335 0.785239 177.168
lowerback -31.7468 -3.64802 -5.16884
upperback -2.80161 -1.74518 -0.372715
thorax 13.5236 -0.58385 1.79476
lowerneck -5.08025 -1.17736 2.39082
upperneck 1.93007 -1.7232 0.637278
head 1.43598 -0.81712 -0.250388
rclavicle -1.36416e-014 3.18055e-015
rhumerus -35.0916 -18.4829 -79.842
rradius 31.9093
rwrist -3.74672
rhand -9.57071 -51.5043
rfingers 7.12502
rthumb 16.397 -80.8312
lclavicle -1.36416e-014 3.18055e-015
lhumerus -26.2465 6.02294 82.8557
lradius 20.3154
lwrist -5.2048
lhand -22.6945 -14.3677
lfingers 7.12502
lthumb 3.73817 15.5792
rfemur -23.9062 7.29818 19.151
rtibia 6.91511
rfoot -18.1302 -4.71995
rtoes -30.2558
lfemur -25.6116 -8.17392 -21.4397
ltibia 7.72479
lfoot -4.04874 -11.2063
ltoes -9.98608
410
root 12.3009 18.8343 16.5318 -152.997 1.016 177.389
lowerback -30.8362 -3.41411 -5.01892
upperback -3.09354 -1.56902 -0.330195
thorax 12.7873 -0.482053 1.85167
lowerneck -4.79413 -1.21721 2.20816
upperneck 2.15922 -1.76667 0.746582
head 1.46099 -0.837731 -0.185844
rclavicle -1.45361e-014 1.39149e-014
rhumerus -35.95 -18.0509 -79.6169
rradius 32.2032
rwrist -4.06933
rhand -8.94057 -51.1075
rfingers 7.12502
rthumb 17.0036 -80.3832
lclavicle -1.45361e-014 1.39149e-014
lhumerus -26.9779 5.95884 82.9645
lradius 20.1925
lwrist -5.12704
lhand -22.7701 -14.417
lfingers 7.12502
lthumb 3.6651 15.5313
rfemur -22.9601 7.20203 19.4356
rtibia 6.6702
rfoot -18.137 -4.31153
rtoes -30.1024
lfemur -24.455 -8.45741 -21.2917
ltibia 7.16844
lfoot -4.26368 -10.5693
ltoes -11.4907
